<?xml version="1.0" encoding="iso-8859-1"?>
<!-- Generator: Adobe Illustrator 19.0.0, SVG Export Plug-In . SVG Version: 6.00 Build 0)  -->
<svg version="1.1" id="Capa_1" xmlns="http://www.w3.org/2000/svg" xmlns:xlink="http://www.w3.org/1999/xlink" x="0px" y="0px"
	 viewBox="0 0 512 512" style="enable-background:new 0 0 512 512;" xml:space="preserve">
<g>
	<circle style="fill:#F4CD1E;" cx="256" cy="256" r="256"/>
	<path style="fill:#EBECED;" d="M356.448,414.897H197.552c-4.875,0-8.828-3.952-8.828-8.828s3.952-8.828,8.828-8.828h158.897
		c4.875,0,8.828,3.952,8.828,8.828S361.324,414.897,356.448,414.897z"/>
	<path style="fill:#336A93;" d="M404.568,205.506l-10.152,10.063L264.474,345.6L162.781,243.818l129.942-129.942l10.152-10.063
		c6.904-6.886,18.078-6.886,24.982,0l76.712,76.712C411.454,187.428,411.454,198.602,404.568,205.506z"/>
	<path style="fill:#FFFFFF;" d="M264.474,345.6l-55.349,55.261c-3.295,3.346-7.795,5.231-12.491,5.231
		c-4.696,0-9.196-1.884-12.491-5.231l-76.712-76.712c-6.885-6.904-6.885-18.078,0-24.982l55.349-55.349L264.474,345.6z"/>
</g>
<g>
</g>
<g>
</g>
<g>
</g>
<g>
</g>
<g>
</g>
<g>
</g>
<g>
</g>
<g>
</g>
<g>
</g>
<g>
</g>
<g>
</g>
<g>
</g>
<g>
</g>
<g>
</g>
<g>
</g>
</svg>
