<?xml version="1.0" encoding="iso-8859-1"?>
<!-- Generator: Adobe Illustrator 19.0.0, SVG Export Plug-In . SVG Version: 6.00 Build 0)  -->
<svg version="1.1" id="Capa_1" xmlns="http://www.w3.org/2000/svg" xmlns:xlink="http://www.w3.org/1999/xlink" x="0px" y="0px"
	 viewBox="0 0 512 512" style="enable-background:new 0 0 512 512;" xml:space="preserve">
<g>
	<path style="fill:#FF6C77;" d="M26.483,0h459.034C500.143,0,512,11.857,512,26.483v459.034C512,500.143,500.143,512,485.517,512
		H26.483C11.857,512,0,500.143,0,485.517V26.483C0,11.857,11.857,0,26.483,0z"/>
	<path style="fill:#5496CE;" d="M388.414,361.931v-26.483c-0.028-9.739-7.916-17.627-17.655-17.655
		c0.03-35.329-16.26-68.692-44.138-90.394v-24.364c0-4.875-3.952-8.828-8.828-8.828h-8.828l-8.828-35.31h8.828
		c4.875,0,8.828-3.952,8.828-8.828v-17.655c0-4.875-3.952-8.828-8.828-8.828h-8.828l-7.082-63.743
		c-0.994-8.941-8.551-15.705-17.547-15.705h-39.016c-8.996,0-16.554,6.764-17.547,15.705l-7.082,63.743h-8.828
		c-4.875,0-8.828,3.952-8.828,8.828v17.655c0,4.875,3.952,8.828,8.828,8.828h8.828l-8.828,35.31h-8.828
		c-4.875,0-8.828,3.952-8.828,8.828v24.364c-27.878,21.702-44.168,55.065-44.138,90.394c-9.739,0.028-17.627,7.916-17.655,17.655
		v26.483c9.751,0,17.655,7.905,17.655,17.655s-7.904,17.655-17.655,17.655V512h264.828V397.241c-9.751,0-17.655-7.904-17.655-17.655
		S378.663,361.931,388.414,361.931z"/>
	<path style="fill:#B4B4B3;" d="M141.241,317.793c-0.03-35.329,16.26-68.692,44.138-90.394h141.241
		c27.878,21.702,44.168,55.065,44.138,90.394H141.241z"/>
	<path style="fill:#DADCDA;" d="M194.207,194.207h123.586c4.875,0,8.828,3.952,8.828,8.828v26.483H185.379v-26.483
		C185.379,198.159,189.332,194.207,194.207,194.207z"/>
	<polygon style="fill:#B4B4B3;" points="300.138,158.897 256,158.897 211.862,158.897 203.034,194.207 256,194.207 308.966,194.207 
			"/>
	<path style="fill:#DADCDA;" d="M203.034,123.586h105.931c4.875,0,8.828,3.952,8.828,8.828v17.655c0,4.875-3.952,8.828-8.828,8.828
		H203.034c-4.875,0-8.828-3.952-8.828-8.828v-17.655C194.207,127.538,198.159,123.586,203.034,123.586z"/>
	<path style="fill:#3A3E48;" d="M293.055,59.843c-0.993-8.941-8.551-15.706-17.547-15.706h-39.016
		c-8.996,0-16.554,6.764-17.547,15.706l-7.083,63.743h88.276L293.055,59.843z"/>
	<path style="fill:#394F63;" d="M388.414,397.241H123.586c9.751,0,17.655-7.904,17.655-17.655s-7.904-17.655-17.655-17.655h264.828
		c-9.751,0-17.655,7.905-17.655,17.655S378.663,397.241,388.414,397.241z"/>
</g>
<g>
</g>
<g>
</g>
<g>
</g>
<g>
</g>
<g>
</g>
<g>
</g>
<g>
</g>
<g>
</g>
<g>
</g>
<g>
</g>
<g>
</g>
<g>
</g>
<g>
</g>
<g>
</g>
<g>
</g>
</svg>
