<?xml version="1.0" encoding="iso-8859-1"?>
<!-- Generator: Adobe Illustrator 19.0.0, SVG Export Plug-In . SVG Version: 6.00 Build 0)  -->
<svg version="1.1" id="Capa_1" xmlns="http://www.w3.org/2000/svg" xmlns:xlink="http://www.w3.org/1999/xlink" x="0px" y="0px"
	 viewBox="0 0 512 512" style="enable-background:new 0 0 512 512;" xml:space="preserve">
<g>
	<g transform="translate(1 1)">
		<path style="fill:#F88F00;" d="M33.133,7.533h443.733c14.138,0,25.6,11.462,25.6,25.6v443.733c0,14.138-11.462,25.6-25.6,25.6
			H33.133c-14.138,0-25.6-11.462-25.6-25.6V33.133C7.533,18.995,18.995,7.533,33.133,7.533z"/>
		<path style="fill:#FFA700;" d="M33.133,7.533h418.133c14.138,0,25.6,11.462,25.6,25.6v443.733c0,14.138-11.462,25.6-25.6,25.6
			H33.133c-14.138,0-25.6-11.462-25.6-25.6V33.133C7.533,18.995,18.995,7.533,33.133,7.533z"/>
		<path style="fill:#354AA3;" d="M161.133,408.6h187.733c9.426,0,17.067,7.641,17.067,17.067v76.8H144.067v-76.8
			C144.067,416.241,151.708,408.6,161.133,408.6z"/>
		<path style="fill:#5068C1;" d="M161.133,408.6h162.133c9.426,0,17.067,7.641,17.067,17.067v76.8H144.067v-76.8
			C144.067,416.241,151.708,408.6,161.133,408.6z"/>
		<path style="fill:#D7DEE2;" d="M348.867,408.6H161.133c1.324-76.919,20.054-152.539,54.784-221.184
			c2.883-5.685,8.73-9.253,15.104-9.216h47.957c6.374-0.037,12.221,3.531,15.104,9.216
			C328.813,256.061,347.543,331.681,348.867,408.6L348.867,408.6z"/>
		<path style="fill:#F6F6F6;" d="M323.267,408.6H161.133c1.324-76.919,20.054-152.539,54.784-221.184
			c2.883-5.685,8.73-9.253,15.104-9.216h22.357c6.374-0.037,12.221,3.531,15.104,9.216
			C303.213,256.061,321.943,331.681,323.267,408.6L323.267,408.6z"/>
		<path style="fill:#5068C1;" d="M280.6,75.8v25.6h-51.2V75.8c0-14.138,11.462-25.6,25.6-25.6C269.139,50.2,280.6,61.662,280.6,75.8
			L280.6,75.8z"/>
		<rect x="229.4" y="101.4" style="fill:#F6F6F6;" width="51.2" height="76.8"/>
	</g>
	<path d="M477.867,0H34.133C15.291,0.022,0.022,15.291,0,34.133v443.733C0.022,496.709,15.291,511.978,34.133,512h443.733
		c18.842-0.022,34.112-15.291,34.133-34.133V34.133C511.978,15.291,496.709,0.022,477.867,0z M153.6,494.933v-68.267
		c0.006-4.71,3.823-8.527,8.533-8.533h187.733c4.71,0.006,8.527,3.823,8.533,8.533v68.267H153.6z M238.933,110.933h34.133v59.733
		h-34.133V110.933z M273.067,93.867h-34.133V76.8c0-9.426,7.641-17.067,17.067-17.067c9.426,0,17.067,7.641,17.067,17.067V93.867z
		 M224.483,192.338c1.459-2.839,4.388-4.618,7.579-4.604h47.875c3.19-0.014,6.118,1.764,7.579,4.6
		c32.651,64.927,50.972,136.111,53.725,208.733H170.758C173.51,328.445,191.832,257.263,224.483,192.338L224.483,192.338z
		 M494.933,477.867c-0.009,9.422-7.645,17.057-17.067,17.067h-102.4v-68.267c-0.035-10.873-6.946-20.533-17.225-24.077
		c-2.251-75.888-21.218-150.345-55.55-218.061c-2.694-5.259-7.134-9.416-12.558-11.759V76.8c0-18.851-15.282-34.133-34.133-34.133
		c-18.851,0-34.133,15.282-34.133,34.133v95.97c-5.425,2.344-9.865,6.503-12.558,11.764c-34.332,67.714-53.3,142.169-55.55,218.056
		c-10.279,3.544-17.19,13.204-17.225,24.077v68.267h-102.4c-9.422-0.009-17.057-7.645-17.067-17.067V34.133
		c0.009-9.422,7.645-17.057,17.067-17.067h443.733c9.422,0.009,17.057,7.645,17.067,17.067V477.867z"/>
</g>
<g>
</g>
<g>
</g>
<g>
</g>
<g>
</g>
<g>
</g>
<g>
</g>
<g>
</g>
<g>
</g>
<g>
</g>
<g>
</g>
<g>
</g>
<g>
</g>
<g>
</g>
<g>
</g>
<g>
</g>
</svg>
